# File created by Blade
# Date/Time:  Wed Jan 21 16:20:01 2015
# Frame Rate: 120.000 fps
#------------------------------------------------------
:FULLY-SPECIFIED
:DEGREES
349
root 19.320326 36.159384 -22.597671 -193.389796 56.070227 -179.717335
Spine 10.864635 45.852798 12.110679
Head 51.210594 55.506187 30.068059
LeftShoulder -22.471455 -23.930542 14.661875
LeftArm -41.994802 -5.044857 -17.475986
LeftForeArm -18.591471 -0.000000 2.523299
LeftHand -8.114166 -0.000000 10.139967
LeftHandThumb1 -26.253704 0.000000 33.147579
RightShoulder -11.003614 -14.652569 7.652823
RightArm 13.892850 -5.464976 49.002965
RightForeArm -59.218976 -0.000000 85.117679
RightHand 1.310630 0.000000 33.942338
RightHandThumb1 -24.326973 -0.000000 -32.862282
LeftUpLeg -75.199351 -35.780472 -18.081659
LeftLeg 91.954832 -0.000000 -0.000000
LeftFoot 30.628641 16.810966 -2.556205
LeftToeBase -175.229116 -0.000000 0.000000
RightUpLeg 19.127728 15.076412 8.205385
RightLeg 2.487300 -0.000000 -0.000000
RightFoot -11.073261 8.173457 14.512596
RightToeBase 27.522258 -0.000000 -0.000000
350
root 19.314048 36.158801 -22.605864 -193.305291 55.999219 -179.639966
Spine 10.849487 45.811562 12.137101
Head 51.234302 55.508118 30.077845
LeftShoulder -22.462472 -23.977942 14.607962
LeftArm -41.992285 -5.013368 -17.450431
LeftForeArm -18.624760 -0.000000 2.588306
LeftHand -8.080727 0.000000 10.109879
LeftHandThumb1 -26.253704 0.000000 33.147579
RightShoulder -10.933634 -14.682268 7.614912
RightArm 13.827505 -5.443987 49.089302
RightForeArm -59.295947 -0.000000 85.260987
RightHand 1.285602 -0.000000 33.877871
RightHandThumb1 -24.326973 -0.000000 -32.862282
LeftUpLeg -75.336061 -35.812250 -17.930306
LeftLeg 91.861883 -0.000000 -0.000000
LeftFoot 30.558503 16.788727 -2.644218
LeftToeBase -175.339530 -0.000000 0.000000
RightUpLeg 19.111851 15.000121 8.199072
RightLeg 2.466207 -0.000000 -0.000000
RightFoot -11.001528 8.225765 14.560505
RightToeBase 27.393077 -0.000000 -0.000000
351
root 19.308326 36.156689 -22.612275 -193.181689 55.945836 -179.529413
Spine 10.809997 45.799623 12.167192
Head 51.243734 55.488588 30.098442
LeftShoulder -22.438295 -24.023823 14.535401
LeftArm -42.009352 -5.012473 -17.383037
LeftForeArm -18.620295 -0.000000 2.668598
LeftHand -8.102274 -0.000000 10.163700
LeftHandThumb1 -26.253704 0.000000 33.147579
RightShoulder -10.918168 -14.654803 7.597075
RightArm 13.780149 -5.477815 49.159003
RightForeArm -59.484064 0.000000 85.397431
RightHand 1.375686 -0.000000 33.999288
RightHandThumb1 -24.326973 -0.000000 -32.862282
LeftUpLeg -75.420992 -35.777404 -17.808131
LeftLeg 91.755742 -0.000000 -0.000000
LeftFoot 30.392097 16.835283 -2.506778
LeftToeBase -175.222862 -0.000000 0.000000
RightUpLeg 19.089286 14.957447 8.231047
RightLeg 2.444481 -0.000000 -0.000000
RightFoot -11.007876 8.189981 14.531957
RightToeBase 27.264035 -0.000000 -0.000000
352
root 19.301001 36.152825 -22.617939 -193.023175 55.877885 -179.411308
Spine 10.714703 45.769339 12.143901
Head 51.206807 55.485657 30.097205
LeftShoulder -22.464271 -24.074170 14.498906
LeftArm -42.015889 -5.059545 -17.287605
LeftForeArm -18.526252 -0.000000 2.723444
LeftHand -8.090643 -0.000000 10.168020
LeftHandThumb1 -26.253704 0.000000 33.147579
RightShoulder -10.906117 -14.597011 7.569227
RightArm 13.734669 -5.523327 49.273468
RightForeArm -59.652731 -0.000000 85.492205
RightHand 1.308443 -0.000000 34.033710
RightHandThumb1 -24.326973 -0.000000 -32.862282
LeftUpLeg -75.547060 -35.754056 -17.654623
LeftLeg 91.647883 -0.000000 -0.000000
LeftFoot 30.241586 16.769043 -2.348669
LeftToeBase -175.146841 -0.000000 0.000000
RightUpLeg 19.033744 14.893957 8.253533
RightLeg 2.421296 -0.000000 -0.000000
RightFoot -10.972034 8.186538 14.557245
RightToeBase 27.014802 -0.000000 -0.000000
353
root 19.293625 36.148273 -22.623390 -192.879164 55.813167 -179.309137
Spine 10.618959 45.748713 12.104930
Head 51.108540 55.466939 30.046908
LeftShoulder -22.481965 -24.083635 14.439923
LeftArm -42.024637 -5.147987 -17.205157
LeftForeArm -18.422734 0.000000 2.800474
LeftHand -8.115415 0.000000 10.146121
LeftHandThumb1 -26.253704 0.000000 33.147579
RightShoulder -10.921956 -14.648729 7.574988
RightArm 13.816679 -5.505977 49.322090
RightForeArm -59.667290 -0.000000 85.500162
RightHand 1.359694 -0.000000 33.991322
RightHandThumb1 -24.326973 -0.000000 -32.862282
LeftUpLeg -75.663202 -35.731137 -17.524087
LeftLeg 91.536318 -0.000000 -0.000000
LeftFoot 30.072800 16.796049 -2.269323
LeftToeBase -175.189012 -0.000000 0.000000
RightUpLeg 18.984227 14.888647 8.295151
RightLeg 2.397105 -0.000000 -0.000000
RightFoot -11.048186 8.053418 14.468683
RightToeBase 27.300643 -0.000000 -0.000000
354
root 19.287039 36.141703 -22.626994 -192.703832 55.748569 -179.181957
Spine 10.509627 45.734150 12.064438
Head 50.975617 55.472060 29.971413
LeftShoulder -22.514532 -24.105368 14.396085
LeftArm -42.020888 -5.216938 -17.147099
LeftForeArm -18.605451 -0.000000 2.835848
LeftHand -7.696286 -0.000000 9.239017
LeftHandThumb1 -26.253704 0.000000 33.147579
RightShoulder -10.880894 -14.539471 7.541334
RightArm 13.708829 -5.520450 49.464728
RightForeArm -59.742452 -0.000000 85.528635
RightHand 1.370430 -0.000000 34.023024
RightHandThumb1 -24.326973 -0.000000 -32.862282
LeftUpLeg -75.798496 -35.740171 -17.359253
LeftLeg 91.449892 -0.000000 -0.000000
LeftFoot 29.881454 16.833589 -2.205556
LeftToeBase -175.131905 -0.000000 0.000000
RightUpLeg 18.922264 14.907071 8.367002
RightLeg 2.384378 -0.000000 -0.000000
RightFoot -11.102763 7.893842 14.438345
RightToeBase 26.999171 -0.000000 -0.000000
355
root 19.286188 36.136225 -22.632298 -192.559226 55.669172 -179.013440
Spine 10.489104 45.691447 12.106654
Head 50.824886 55.481945 29.894597
LeftShoulder -22.542310 -24.121540 14.365108
LeftArm -42.025346 -5.291554 -17.132230
LeftForeArm -18.545577 -0.000000 2.816874
LeftHand -7.592208 0.000000 9.109131
LeftHandThumb1 -26.253704 0.000000 33.147579
RightShoulder -10.844891 -14.462454 7.513343
RightArm 13.664247 -5.526353 49.583516
RightForeArm -59.769547 0.000000 85.489825
RightHand 1.389257 -0.000000 33.978208
RightHandThumb1 -24.326973 -0.000000 -32.862282
LeftUpLeg -75.883300 -35.801815 -17.141694
LeftLeg 91.357951 -0.000000 -0.000000
LeftFoot 29.759717 16.768398 -2.120432
LeftToeBase -174.902054 -0.000000 0.000000
RightUpLeg 18.952170 14.933413 8.506833
RightLeg 2.346516 -0.000000 -0.000000
RightFoot -11.143107 7.635029 14.470339
RightToeBase 26.972984 -0.000000 -0.000000
356
root 19.280053 36.129638 -22.637864 -192.421740 55.566556 -178.892824
Spine 10.411542 45.634593 12.070231
Head 50.688388 55.503279 29.835154
LeftShoulder -22.591474 -24.122588 14.352459
LeftArm -42.032883 -5.369042 -17.159824
LeftForeArm -18.236150 -0.000000 2.839916
LeftHand -7.999631 0.000000 10.066616
LeftHandThumb1 -26.253704 0.000000 33.147579
RightShoulder -10.804219 -14.479273 7.514286
RightArm 13.696640 -5.449071 49.687759
RightForeArm -59.737474 0.000000 85.418491
RightHand 1.352975 -0.000000 34.012273
RightHandThumb1 -24.326973 -0.000000 -32.862282
LeftUpLeg -75.919073 -35.753529 -17.077974
LeftLeg 91.257860 -0.000000 -0.000000
LeftFoot 29.588383 16.826894 -2.045776
LeftToeBase -174.992867 -0.000000 0.000000
RightUpLeg 18.936182 15.029718 8.629068
RightLeg 2.334525 -0.000000 -0.000000
RightFoot -11.236504 7.315588 14.442666
RightToeBase 26.589308 -0.000000 -0.000000
357
root 19.277327 36.122478 -22.643270 -192.267373 55.480433 -178.737678
Spine 10.342053 45.616213 12.067482
Head 50.570370 55.491764 29.794311
LeftShoulder -22.612076 -24.127764 14.354110
LeftArm -42.047170 -5.443754 -17.209467
LeftForeArm -18.212922 -0.000000 2.796762
LeftHand -7.982177 -0.000000 9.975150
LeftHandThumb1 -26.253704 0.000000 33.147579
RightShoulder -10.729947 -14.451126 7.497133
RightArm 13.631947 -5.394905 49.848616
RightForeArm -59.840295 -0.000000 85.373132
RightHand 1.347424 -0.000000 34.099504
RightHandThumb1 -24.326973 -0.000000 -32.862282
LeftUpLeg -75.948337 -35.714243 -16.988545
LeftLeg 91.162437 -0.000000 -0.000000
LeftFoot 29.457253 16.915516 -1.954850
LeftToeBase -175.061748 -0.000000 0.000000
RightUpLeg 18.939879 15.182638 8.803270
RightLeg 2.319730 -0.000000 -0.000000
RightFoot -11.325097 6.931549 14.525777
RightToeBase 26.173416 -0.000000 -0.000000
358
root 19.273549 36.113271 -22.645978 -192.089640 55.376962 -178.584093
Spine 10.223950 45.615596 12.011312
Head 50.374272 55.445907 29.718686
LeftShoulder -22.621958 -24.108631 14.382394
LeftArm -42.045889 -5.516169 -17.328683
LeftForeArm -18.298968 0.000000 2.739467
LeftHand -7.963358 -0.000000 9.925146
LeftHandThumb1 -26.253704 0.000000 33.147579
RightShoulder -10.718052 -14.397940 7.519296
RightArm 13.635438 -5.412138 49.915820
RightForeArm -59.873076 -0.000000 85.266383
RightHand 1.320536 0.000000 34.200900
RightHandThumb1 -24.326973 -0.000000 -32.862282
LeftUpLeg -76.013298 -35.684663 -16.869971
LeftLeg 91.066627 -0.000000 -0.000000
LeftFoot 29.383251 16.914728 -1.881875
LeftToeBase -175.119639 -0.000000 0.000000
RightUpLeg 18.920786 15.377309 8.994262
RightLeg 2.306507 -0.000000 -0.000000
RightFoot -11.472699 6.444818 14.515350
RightToeBase 25.921507 -0.000000 -0.000000
359
root 19.270075 36.102871 -22.649216 -191.888680 55.241109 -178.413658
Spine 10.059839 45.575532 11.930359
Head 50.220197 55.382473 29.684579
LeftShoulder -22.641897 -24.042121 14.406668
LeftArm -42.006286 -5.661871 -17.398981
LeftForeArm -18.449168 -0.000000 2.593705
LeftHand -7.746765 -0.000000 9.251853
LeftHandThumb1 -26.253704 0.000000 33.147579
RightShoulder -10.681165 -14.347311 7.534684
RightArm 13.647194 -5.498860 49.962258
RightForeArm -60.012947 -0.000000 85.107401
RightHand 1.420803 0.000000 34.200281
RightHandThumb1 -24.326973 -0.000000 -32.862282
LeftUpLeg -76.064026 -35.688490 -16.771283
LeftLeg 91.007525 -0.000000 -0.000000
LeftFoot 29.272555 16.711802 -1.734514
LeftToeBase -175.079934 -0.000000 0.000000
RightUpLeg 18.920346 15.662021 9.233131
RightLeg 2.266001 -0.000000 -0.000000
RightFoot -11.632364 5.831861 14.564272
RightToeBase 25.480379 -0.000000 -0.000000
360
root 19.266647 36.092502 -22.652413 -191.695671 55.087232 -178.254956
Spine 9.883506 45.514788 11.827680
Head 50.085511 55.319215 29.658486
LeftShoulder -22.661309 -23.999513 14.411923
LeftArm -41.962514 -5.767505 -17.474683
LeftForeArm -18.359950 -0.000000 2.442275
LeftHand -7.965711 0.000000 9.770987
LeftHandThumb1 -26.253704 0.000000 33.147579
RightShoulder -10.639077 -14.361690 7.574124
RightArm 13.733196 -5.563535 49.967065
RightForeArm -60.054674 0.000000 84.911095
RightHand 1.456126 -0.000000 34.146548
RightHandThumb1 -24.326973 -0.000000 -32.862282
LeftUpLeg -76.085643 -35.681256 -16.704248
LeftLeg 90.895056 -0.000000 -0.000000
LeftFoot 29.213902 16.909904 -1.753485
LeftToeBase -175.252971 -0.000000 0.000000
RightUpLeg 18.918115 15.981336 9.476300
RightLeg 2.233819 -0.000000 -0.000000
RightFoot -11.824209 5.203797 14.583777
RightToeBase 25.154236 -0.000000 -0.000000
361
root 19.264486 36.081665 -22.654947 -191.506927 54.904397 -178.103097
Spine 9.692048 45.469551 11.698534
Head 49.972463 55.232774 29.687941
LeftShoulder -22.653918 -23.959507 14.408479
LeftArm -41.898490 -5.912142 -17.512415
LeftForeArm -18.353930 0.000000 2.289901
LeftHand -8.023540 -0.000000 9.660901
LeftHandThumb1 -26.253704 0.000000 33.147579
RightShoulder -10.557234 -14.295208 7.603736
RightArm 13.680734 -5.674785 49.966220
RightForeArm -60.023389 -0.000000 84.786656
RightHand 1.352882 -0.000000 34.332885
RightHandThumb1 -24.326973 -0.000000 -32.862282
LeftUpLeg -76.081205 -35.677867 -16.670295
LeftLeg 90.809273 -0.000000 -0.000000
LeftFoot 29.140276 16.942227 -1.710165
LeftToeBase -175.198245 -0.000000 0.000000
RightUpLeg 18.894070 16.201092 9.679921
RightLeg 2.229663 -0.000000 -0.000000
RightFoot -11.960156 4.708936 14.680060
RightToeBase 24.603822 -0.000000 -0.000000
